<?xml version="1.0" encoding="utf-8"?>
<!-- Generator: Adobe Illustrator 16.0.3, SVG Export Plug-In . SVG Version: 6.00 Build 0)  -->
<!DOCTYPE svg PUBLIC "-//W3C//DTD SVG 1.1//EN" "http://www.w3.org/Graphics/SVG/1.1/DTD/svg11.dtd">
<svg version="1.1" id="Layer_1" xmlns:sketch="http://www.bohemiancoding.com/sketch/ns"
	 xmlns="http://www.w3.org/2000/svg" xmlns:xlink="http://www.w3.org/1999/xlink" x="0px" y="0px" width="60px" height="26px"
	 viewBox="0 1.813 60 26" enable-background="new 0 1.813 60 26" xml:space="preserve">
<title>Imported Layers</title>
<desc>Created with Sketch.</desc>
<g id="Page-1" sketch:type="MSPage">
	<g id="desktop" transform="translate(-40.000000, -56.000000)" sketch:type="MSArtboardGroup">
		<g id="Oval-1-_x2B_-Imported-Layers" transform="translate(30.000000, 30.000000)" sketch:type="MSLayerGroup">
			<g id="Imported-Layers" transform="translate(15.000000, 28.584416)" sketch:type="MSShapeGroup">
				<path id="Fill-1" fill="#DD3737" d="M18.695,12.138c0-3.322,2.677-6.014,5.98-6.014c3.303,0,5.98,2.692,5.98,6.014
					c0,3.323-2.677,6.016-5.98,6.016C21.373,18.154,18.695,15.461,18.695,12.138"/>
				<path id="Fill-2" fill="#DD3737" d="M21.876,17.455c-3.4,3.089-9.156,5.164-12.966,5.164c-5.704,0-7.611-4.652-7.611-10.39
					S3.206,1.839,8.91,1.839c3.765,0,9.426,2.025,12.842,5.053L21.876,17.455"/>
				<path id="Fill-3" fill="#DD3737" d="M27.473,17.453c3.401,3.09,9.157,5.166,12.969,5.166c5.704,0,7.611-4.652,7.611-10.39
					s-1.907-10.39-7.611-10.39c-3.765,0-9.426,2.025-12.841,5.052L27.473,17.453"/>
				<path id="Fill-4" d="M24.675,19.452c-4.014,0-7.278-3.28-7.278-7.314c0-4.033,3.265-7.313,7.278-7.313
					c4.014,0,7.28,3.28,7.28,7.313C31.955,16.171,28.689,19.452,24.675,19.452L24.675,19.452z M24.675,7.422
					c-2.581,0-4.681,2.115-4.681,4.716c0,2.601,2.1,4.717,4.681,4.717c2.581,0,4.682-2.116,4.682-4.717
					C29.357,9.537,27.256,7.422,24.675,7.422L24.675,7.422z"/>
				<path id="Fill-5" d="M8.91,23.918C3.164,23.918,0,19.766,0,12.229S3.164,0.541,8.91,0.541c4.352,0,10.243,2.313,13.703,5.38
					L20.89,7.864c-3.337-2.958-8.712-4.726-11.98-4.726c-4.189,0-6.312,3.059-6.312,9.091c0,6.032,2.123,9.091,6.312,9.091
					c3.26,0,8.811-1.846,12.093-4.827l1.747,1.923C19.296,21.552,13.347,23.918,8.91,23.918"/>
				<path id="Fill-6" d="M40.441,23.918c-4.438,0-10.388-2.365-13.842-5.504l1.747-1.922c3.282,2.982,8.834,4.828,12.095,4.828
					c4.188,0,6.312-3.059,6.312-9.091c0-6.032-2.124-9.091-6.312-9.091c-3.268,0-8.643,1.768-11.979,4.725L26.74,5.919
					c3.459-3.066,9.35-5.378,13.701-5.378c5.745,0,8.91,4.151,8.91,11.688S46.187,23.918,40.441,23.918"/>
				<path id="Fill-7" d="M13.379,16.937c-0.545,0-1.053-0.346-1.232-0.892c-0.226-0.681,0.144-1.415,0.825-1.64l5.551-1.834
					c0.681-0.225,1.416,0.145,1.64,0.825c0.225,0.681-0.144,1.416-0.825,1.641l-5.551,1.835
					C13.652,16.916,13.514,16.937,13.379,16.937"/>
				<path id="Fill-8" d="M18.991,11.563c-0.119,0-0.24-0.016-0.36-0.051l-5.57-1.606c-0.689-0.199-1.087-0.919-0.889-1.608
					c0.199-0.689,0.92-1.087,1.608-0.888l5.57,1.606c0.689,0.199,1.087,0.918,0.888,1.608
					C20.074,11.193,19.555,11.563,18.991,11.563"/>
				<path id="Fill-9" d="M35.715,16.937c-0.136,0-0.272-0.021-0.408-0.065l-5.316-1.758c-0.682-0.226-1.051-0.96-0.826-1.641
					c0.226-0.681,0.96-1.05,1.641-0.825l5.317,1.758c0.681,0.225,1.051,0.959,0.825,1.641C36.768,16.591,36.26,16.937,35.715,16.937
					"/>
				<path id="Fill-10" d="M30.334,11.498c-0.564,0-1.084-0.37-1.248-0.94c-0.198-0.689,0.199-1.408,0.889-1.608l5.339-1.54
					C36,7.211,36.723,7.608,36.922,8.298c0.198,0.689-0.199,1.409-0.889,1.608l-5.339,1.54
					C30.574,11.481,30.453,11.498,30.334,11.498"/>
			</g>
		</g>
	</g>
</g>
</svg>
