<?xml version="1.0" encoding="utf-8"?>
<!-- Generator: Adobe Illustrator 16.0.0, SVG Export Plug-In . SVG Version: 6.00 Build 0)  -->
<!DOCTYPE svg PUBLIC "-//W3C//DTD SVG 1.1//EN" "http://www.w3.org/Graphics/SVG/1.1/DTD/svg11.dtd">
<svg version="1.1" xmlns="http://www.w3.org/2000/svg" xmlns:xlink="http://www.w3.org/1999/xlink" x="0px" y="0px" width="254px"
	 height="86px" viewBox="0 0 254 86" enable-background="new 0 0 254 86" xml:space="preserve">
<g id="Layer_1">
</g>
<g id="Layer_2">
	<g>
		<g>
			
				<line fill="none" stroke="#55ACEE" stroke-width="2.4" stroke-linecap="round" stroke-linejoin="round" stroke-miterlimit="10" x1="105.024" y1="47.189" x2="149.596" y2="47.189"/>
			
				<path fill="none" stroke="#55ACEE" stroke-width="2.4" stroke-linecap="round" stroke-linejoin="round" stroke-miterlimit="10" d="
				M150.167,55.571c0,1.263-1.023,2.286-2.285,2.286h-41.144c-1.262,0-2.285-1.023-2.285-2.286V25.857
				c0-1.262,1.023-2.285,2.285-2.285h41.144c1.262,0,2.285,1.023,2.285,2.285V55.571z"/>
			
				<path fill="none" stroke="#55ACEE" stroke-width="2.4" stroke-linecap="round" stroke-linejoin="round" stroke-miterlimit="10" d="
				M121.596,57.857c0,0,0.111,2.172-1.143,4.57c-1.93,3.691-3.43,4-3.43,4h20.572c0,0-1.786,0-3.428-4
				c-0.955-2.324-1.145-4.57-1.145-4.57"/>
		</g>
		
			<circle fill="none" stroke="#55ACEE" stroke-width="2.4" stroke-linecap="round" stroke-linejoin="round" stroke-miterlimit="10" cx="127.31" cy="43" r="40"/>
	</g>
	<g>
		
			<circle fill="none" stroke="#55ACEE" stroke-width="2.4" stroke-linecap="round" stroke-linejoin="round" stroke-miterlimit="10" cx="43.787" cy="43" r="40"/>
		<g>
			
				<path fill="none" stroke="#55ACEE" stroke-width="2.4" stroke-linecap="round" stroke-linejoin="round" stroke-miterlimit="10" d="
				M37.309,62.2c0,0-0.134-6-3.2-8.534c-3.823-3.159-13.6-9.333-13.6-9.333s-1.045-6.076,4.533-8.267
				c3.733-1.467,8.267,1.6,8.267,1.6l0.267-16c0,0-0.4-5.866,5.866-5.866c5.733,0,5.867,4.729,5.867,5.866c0,4.801,0,8,0,8
				s18.399,0.267,20.267,7.467c1.866,7.2-2,13.867-3.066,17.867c-1.067,4-1.2,7.2-1.2,7.2H37.309z"/>
			
				<line fill="none" stroke="#55ACEE" stroke-width="2.4" stroke-linecap="round" stroke-linejoin="round" stroke-miterlimit="10" x1="37.309" y1="67" x2="61.309" y2="67"/>
		</g>
	</g>
	<g>
		
			<circle fill="none" stroke="#55ACEE" stroke-width="2.4" stroke-linecap="round" stroke-linejoin="round" stroke-miterlimit="10" cx="211.213" cy="43" r="40"/>
		<g>
			
				<rect x="207.646" y="21.035" transform="matrix(-0.7071 -0.7071 0.7071 -0.7071 340.811 218.4381)" fill="none" stroke="#55ACEE" stroke-width="2.4" stroke-linecap="round" stroke-linejoin="round" stroke-miterlimit="10" width="16" height="35.199"/>
			
				<polyline fill="none" stroke="#55ACEE" stroke-width="2.4" stroke-linecap="round" stroke-linejoin="round" stroke-miterlimit="10" points="
				208.857,56.736 192.734,61.545 197.544,45.423 			"/>
			
				<line fill="none" stroke="#55ACEE" stroke-width="2.4" stroke-linecap="round" stroke-linejoin="round" stroke-miterlimit="10" x1="201.241" y1="59.008" x2="195.272" y2="53.039"/>
			
				<line fill="none" stroke="#55ACEE" stroke-width="2.4" stroke-linecap="round" stroke-linejoin="round" stroke-miterlimit="10" x1="203.2" y1="51.08" x2="228.091" y2="26.189"/>
		</g>
	</g>
</g>
</svg>
