<?xml version="1.0" encoding="utf-8"?>
<!-- Generator: Adobe Illustrator 16.0.0, SVG Export Plug-In . SVG Version: 6.00 Build 0)  -->
<!DOCTYPE svg PUBLIC "-//W3C//DTD SVG 1.1//EN" "http://www.w3.org/Graphics/SVG/1.1/DTD/svg11.dtd">
<svg version="1.1" id="Layer_1" xmlns="http://www.w3.org/2000/svg" xmlns:xlink="http://www.w3.org/1999/xlink" x="0px" y="0px"
	 width="451px" height="189.5px" viewBox="0 0 451 189.5" enable-background="new 0 0 451 189.5" xml:space="preserve">
<g>
	<circle fill="#3B95CC" cx="226" cy="160" r="28"/>
	<path fill="#3B95CC" d="M389,162.833L374.205,177c0,0-4.667,4.167-8.101-0.628C362.486,171.32,333.77,134,333.77,134L286,125V95
		l83.77,13L389,162.833z"/>
	<path fill="#3B95CC" d="M237,104h-24h-49l0.25,16.417l15.292-3.042c0,0,1.959,4.625,10.292,4.625c3.712,0,13.478,0,23.167,0
		c0,0,11.925,0,24,0c9.773,0,19.644,0,23.372,0c8.333,0,10.292-4.625,10.292-4.625l15.292,3.042l0.25-16.417H237z"/>
	<path fill="#3B95CC" d="M61.206,162.833L76,177c0,0,4.667,4.167,8.101-0.628C87.718,171.32,116.333,134,116.333,134L164,125V95
		l-83.667,13L61.206,162.833z"/>
	
		<polyline fill="none" stroke="#000000" stroke-width="7" stroke-linecap="round" stroke-linejoin="round" stroke-miterlimit="10" points="
		164.5,186 164.5,104.5 285.5,104.5 285.5,186 	"/>
	
		<polygon fill="#A9DEFF" stroke="#000000" stroke-width="6" stroke-linecap="round" stroke-linejoin="round" stroke-miterlimit="10" points="
		376,171 254,11 197,11 74,171 34,132.491 34,11 416,11 416,131.548 	"/>
	<g>
		<path fill="#822C2C" d="M26,137c-0.874,0-1.715-0.382-2.292-1.063C22.863,134.936,3,110.96,3,70S22.863,5.064,23.708,4.063
			C24.285,3.382,25.126,3,26,3c0.185,0,0.371,0.017,0.556,0.052l159,30C186.974,33.319,188,34.558,188,36v68
			c0,1.442-1.026,2.681-2.444,2.948l-159,30C26.371,136.983,26.185,137,26,137z"/>
		<path d="M26,6l159,30v68L26,134c0,0-20-23.667-20-64S26,6,26,6 M26,0c-1.747,0-3.431,0.764-4.583,2.127
			C20.543,3.162,0,27.954,0,70s20.543,66.838,21.417,67.873C22.569,139.235,24.252,140,26,140c0.37,0,0.742-0.034,1.113-0.104
			l159-30c2.835-0.535,4.888-3.011,4.888-5.896V36c0-2.885-2.053-5.361-4.888-5.896l-159-30C26.742,0.034,26.369,0,26,0L26,0z"/>
	</g>
	<g>
		<path fill="#822C2C" d="M425,137c-0.185,0-0.371-0.017-0.557-0.052l-159-30C264.026,106.681,263,105.442,263,104V36
			c0-1.442,1.026-2.681,2.444-2.948l159-30C424.629,3.017,424.815,3,425,3c0.874,0,1.716,0.382,2.291,1.063
			C428.137,5.064,448,29.04,448,70s-19.863,64.936-20.709,65.937C426.716,136.618,425.874,137,425,137z"/>
		<g>
			<path d="M425,6c0,0,20,23.667,20,64s-20,64-20,64l-159-30V36L425,6 M425,0c-0.369,0-0.741,0.034-1.112,0.104l-159,30
				C262.053,30.639,260,33.115,260,36v68c0,2.885,2.053,5.361,4.888,5.896l159,30c0.371,0.07,0.743,0.104,1.112,0.104
				c1.748,0,3.431-0.764,4.583-2.127C430.457,136.838,451,112.046,451,70S430.457,3.162,429.583,2.127
				C428.431,0.765,426.748,0,425,0L425,0z"/>
		</g>
	</g>
	<g>
		<path fill="#FFFFFF" d="M192,113c-4.962,0-9-4.038-9-9V36c0-4.962,4.038-9,9-9h68c4.962,0,9,4.038,9,9v68c0,4.962-4.038,9-9,9H192
			z"/>
		<path d="M260,30c3.313,0,6,2.687,6,6v68c0,3.313-2.687,6-6,6h-68c-3.313,0-6-2.687-6-6V36c0-3.313,2.687-6,6-6H260 M260,24h-68
			c-6.617,0-12,5.383-12,12v68c0,6.617,5.383,12,12,12h68c6.617,0,12-5.383,12-12V36C272,29.383,266.617,24,260,24L260,24z"/>
	</g>
	<g>
		<path fill="#FF404E" d="M198,113c-1.657,0-3-1.343-3-3V30c0-1.657,1.343-3,3-3h56c1.657,0,3,1.343,3,3v80c0,1.657-1.343,3-3,3H198
			z"/>
		<path d="M254,30v80h-56V30H254 M254,24h-56c-3.313,0-6,2.687-6,6v80c0,3.313,2.687,6,6,6h56c3.313,0,6-2.687,6-6V30
			C260,26.687,257.313,24,254,24L254,24z"/>
	</g>
	
		<circle fill="#FFFFFF" stroke="#000000" stroke-width="6" stroke-linecap="round" stroke-linejoin="round" stroke-miterlimit="10" cx="226" cy="155" r="25"/>
	<circle cx="218.833" cy="154.333" r="5"/>
	<circle cx="232.833" cy="154.333" r="5"/>
	<path fill="none" stroke="#000000" stroke-width="6" stroke-linecap="round" stroke-linejoin="round" stroke-miterlimit="10" d="
		M6.578,58.259c0,0,39.755-7.592,49.422-2.259s-0.667,10,6,14s54.399-7.667,54.333,7.667C116.234,100.753,83.667,106,65,106.333
		S34.334,98,27.667,101s-16.484,3.5-16.484,3.5"/>
	<path fill="none" stroke="#000000" stroke-width="6" stroke-linecap="round" stroke-linejoin="round" stroke-miterlimit="10" d="
		M9.25,42.476c0,0,47.417-8.81,57.75-3.476s6,14.201,30,15.101s75.333-1.434,77,13.233s-12,36.579-57.667,49.623
		S53.667,121.333,45,125.333s-7.666,8.339-7.666,8.339"/>
	<path fill="none" stroke="#000000" stroke-width="6" stroke-linecap="round" stroke-linejoin="round" stroke-miterlimit="10" d="
		M19.571,15.798c0,0,59.763-8.798,74.096,7.202S149.333,42.667,163,43s20,0,20,0"/>
	<path fill="none" stroke="#000000" stroke-width="6" stroke-linecap="round" stroke-linejoin="round" stroke-miterlimit="10" d="
		M439.938,30c0,0-43.604-7.333-50.271,7.285c-5.631,12.347-8.666,23.382-28.333,24.048s-36.666,11.667-26,26.333s63,3,80,9
		s16.632,7.666,26.482,7.833"/>
	<path fill="none" stroke="#000000" stroke-width="6" stroke-linecap="round" stroke-linejoin="round" stroke-miterlimit="10" d="
		M445.516,51.252c0,0-21.182-4.051-23.849,2.849S407.001,66.333,407.334,73s18.56,10.058,28,7.222s11.44-2.836,11.44-2.836"/>
	<path fill="none" stroke="#000000" stroke-width="6" stroke-linecap="round" stroke-linejoin="round" stroke-miterlimit="10" d="
		M430.562,11c0,0-50.228-3.667-60.562,12c-12.121,18.375-26.666,14.333-52.333,17.333s-46,21.457-37.333,40.895
		s44,29.438,75.167,30.438s45.501-5.667,59.834,0s19.078,6.721,19.078,6.721"/>
</g>
</svg>
