<?xml version="1.0" encoding="utf-8"?>
<!-- Generator: Adobe Illustrator 16.0.0, SVG Export Plug-In . SVG Version: 6.00 Build 0)  -->
<!DOCTYPE svg PUBLIC "-//W3C//DTD SVG 1.1//EN" "http://www.w3.org/Graphics/SVG/1.1/DTD/svg11.dtd">
<svg version="1.1" xmlns="http://www.w3.org/2000/svg" xmlns:xlink="http://www.w3.org/1999/xlink" x="0px" y="0px" width="204px"
	 height="60px" viewBox="0 0 204 60" enable-background="new 0 0 204 60" xml:space="preserve">
<g id="Layer_1">
</g>
<g id="Layer_2">
	<g>
		<g>
			
				<rect x="89.426" y="14.07" fill="none" stroke="#FFFFFF" stroke-width="2.5" stroke-linecap="round" stroke-linejoin="round" stroke-miterlimit="10" width="25.037" height="20"/>
			
				<path fill="none" stroke="#FFFFFF" stroke-width="2.5" stroke-linecap="round" stroke-linejoin="round" stroke-miterlimit="10" d="
				M89.426,14.07L40.296,4c0,0-5.333,6.307-5.333,20.07c0,13.763,5.5,19.93,5.5,19.93l48.963-9.93"/>
			<line fill="none" stroke="#FFFFFF" stroke-width="2.5" stroke-miterlimit="10" x1="94.629" y1="14.07" x2="94.629" y2="34.07"/>
			
				<line fill="none" stroke="#FFFFFF" stroke-width="2.5" stroke-miterlimit="10" x1="109.629" y1="14.07" x2="109.629" y2="34.07"/>
			
				<line fill="none" stroke="#FFFFFF" stroke-width="2.5" stroke-linecap="round" stroke-linejoin="round" stroke-miterlimit="10" x1="88.926" y1="18" x2="62.194" y2="18"/>
			
				<line fill="none" stroke="#FFFFFF" stroke-width="2.5" stroke-linecap="round" stroke-linejoin="round" stroke-miterlimit="10" x1="56.129" y1="18" x2="50.754" y2="18"/>
			
				<polyline fill="none" stroke="#FFFFFF" stroke-width="2.5" stroke-linecap="round" stroke-linejoin="round" stroke-miterlimit="10" points="
				45.129,18 35.333,18 36.266,13.063 64.879,13.063 			"/>
			
				<line fill="none" stroke="#FFFFFF" stroke-width="2.5" stroke-linecap="round" stroke-linejoin="round" stroke-miterlimit="10" x1="84.129" y1="13.063" x2="70.254" y2="13.063"/>
			
				<line fill="none" stroke="#FFFFFF" stroke-width="2.5" stroke-linecap="round" stroke-linejoin="round" stroke-miterlimit="10" x1="38.186" y1="7.593" x2="57.324" y2="7.593"/>
			
				<line fill="none" stroke="#FFFFFF" stroke-width="2.5" stroke-linecap="round" stroke-linejoin="round" stroke-miterlimit="10" x1="34.963" y1="23.5" x2="52.879" y2="23.5"/>
			
				<line fill="none" stroke="#FFFFFF" stroke-width="2.5" stroke-linecap="round" stroke-linejoin="round" stroke-miterlimit="10" x1="58.879" y1="23.5" x2="61.504" y2="23.5"/>
			
				<line fill="none" stroke="#FFFFFF" stroke-width="2.5" stroke-linecap="round" stroke-linejoin="round" stroke-miterlimit="10" x1="66.254" y1="23.5" x2="80.754" y2="23.5"/>
			
				<line fill="none" stroke="#FFFFFF" stroke-width="2.5" stroke-linecap="round" stroke-linejoin="round" stroke-miterlimit="10" x1="85.379" y1="23.5" x2="88.426" y2="23.5"/>
			
				<line fill="none" stroke="#FFFFFF" stroke-width="2.5" stroke-linecap="round" stroke-linejoin="round" stroke-miterlimit="10" x1="88.926" y1="28.5" x2="72.879" y2="28.5"/>
			
				<line fill="none" stroke="#FFFFFF" stroke-width="2.5" stroke-linecap="round" stroke-linejoin="round" stroke-miterlimit="10" x1="64.129" y1="28.5" x2="35.163" y2="28.5"/>
			
				<line fill="none" stroke="#FFFFFF" stroke-width="2.5" stroke-linecap="round" stroke-linejoin="round" stroke-miterlimit="10" x1="36.061" y1="34.07" x2="48.879" y2="34.07"/>
			
				<line fill="none" stroke="#FFFFFF" stroke-width="2.5" stroke-linecap="round" stroke-linejoin="round" stroke-miterlimit="10" x1="53.441" y1="34.07" x2="88.652" y2="34.07"/>
			
				<line fill="none" stroke="#FFFFFF" stroke-width="2.5" stroke-linecap="round" stroke-linejoin="round" stroke-miterlimit="10" x1="37.811" y1="39.421" x2="63.041" y2="39.421"/>
			
				<path fill="none" stroke="#FFFFFF" stroke-width="2.5" stroke-linecap="round" stroke-linejoin="round" stroke-miterlimit="10" d="
				M113.962,33.93L163.093,44c0,0,5.333-6.307,5.333-20.07c0-13.763-5.5-19.93-5.5-19.93l-48.964,9.93"/>
			
				<line fill="none" stroke="#FFFFFF" stroke-width="2.5" stroke-linecap="round" stroke-linejoin="round" stroke-miterlimit="10" x1="114.462" y1="30" x2="141.194" y2="30"/>
			
				<line fill="none" stroke="#FFFFFF" stroke-width="2.5" stroke-linecap="round" stroke-linejoin="round" stroke-miterlimit="10" x1="147.26" y1="30" x2="152.635" y2="30"/>
			
				<polyline fill="none" stroke="#FFFFFF" stroke-width="2.5" stroke-linecap="round" stroke-linejoin="round" stroke-miterlimit="10" points="
				158.26,30 168.056,30 167.123,34.937 138.51,34.937 			"/>
			
				<line fill="none" stroke="#FFFFFF" stroke-width="2.5" stroke-linecap="round" stroke-linejoin="round" stroke-miterlimit="10" x1="133.135" y1="34.937" x2="119.26" y2="34.937"/>
			
				<line fill="none" stroke="#FFFFFF" stroke-width="2.5" stroke-linecap="round" stroke-linejoin="round" stroke-miterlimit="10" x1="165.203" y1="40.407" x2="146.064" y2="40.407"/>
			
				<line fill="none" stroke="#FFFFFF" stroke-width="2.5" stroke-linecap="round" stroke-linejoin="round" stroke-miterlimit="10" x1="168.426" y1="24.5" x2="150.51" y2="24.5"/>
			
				<line fill="none" stroke="#FFFFFF" stroke-width="2.5" stroke-linecap="round" stroke-linejoin="round" stroke-miterlimit="10" x1="144.51" y1="24.5" x2="141.885" y2="24.5"/>
			
				<line fill="none" stroke="#FFFFFF" stroke-width="2.5" stroke-linecap="round" stroke-linejoin="round" stroke-miterlimit="10" x1="137.135" y1="24.5" x2="122.635" y2="24.5"/>
			
				<line fill="none" stroke="#FFFFFF" stroke-width="2.5" stroke-linecap="round" stroke-linejoin="round" stroke-miterlimit="10" x1="118.01" y1="24.5" x2="114.962" y2="24.5"/>
			
				<line fill="none" stroke="#FFFFFF" stroke-width="2.5" stroke-linecap="round" stroke-linejoin="round" stroke-miterlimit="10" x1="114.462" y1="19.5" x2="130.51" y2="19.5"/>
			
				<line fill="none" stroke="#FFFFFF" stroke-width="2.5" stroke-linecap="round" stroke-linejoin="round" stroke-miterlimit="10" x1="139.26" y1="19.5" x2="168.226" y2="19.5"/>
			
				<line fill="none" stroke="#FFFFFF" stroke-width="2.5" stroke-linecap="round" stroke-linejoin="round" stroke-miterlimit="10" x1="167.328" y1="13.93" x2="154.51" y2="13.93"/>
			
				<line fill="none" stroke="#FFFFFF" stroke-width="2.5" stroke-linecap="round" stroke-linejoin="round" stroke-miterlimit="10" x1="149.947" y1="13.93" x2="114.736" y2="13.93"/>
			
				<line fill="none" stroke="#FFFFFF" stroke-width="2.5" stroke-linecap="round" stroke-linejoin="round" stroke-miterlimit="10" x1="165.578" y1="8.579" x2="140.348" y2="8.579"/>
		</g>
		
			<polyline fill="none" stroke="#FFFFFF" stroke-width="2.5" stroke-linecap="round" stroke-linejoin="round" stroke-miterlimit="10" points="
			78.996,36.186 72.609,56 15.629,35.788 15.629,4 89.371,4 86.33,13.436 		"/>
		
			<polyline fill="none" stroke="#FFFFFF" stroke-width="2.5" stroke-linecap="round" stroke-linejoin="round" stroke-miterlimit="10" points="
			125.004,36.186 131.391,56 188.371,35.788 188.371,4 114.629,4 117.67,13.436 		"/>
		
			<line fill="none" stroke="#FFFFFF" stroke-width="2.5" stroke-linecap="round" stroke-linejoin="round" stroke-miterlimit="10" x1="76.478" y1="44" x2="127.522" y2="44"/>
		
			<line fill="none" stroke="#FFFFFF" stroke-width="2.5" stroke-linecap="round" stroke-linejoin="round" stroke-miterlimit="10" x1="89.371" y1="4" x2="115.629" y2="4"/>
	</g>
</g>
</svg>
