<?xml version="1.0" encoding="utf-8"?>
<!-- Generator: Adobe Illustrator 16.0.0, SVG Export Plug-In . SVG Version: 6.00 Build 0)  -->
<!DOCTYPE svg PUBLIC "-//W3C//DTD SVG 1.1//EN" "http://www.w3.org/Graphics/SVG/1.1/DTD/svg11.dtd">
<svg version="1.1" xmlns="http://www.w3.org/2000/svg" xmlns:xlink="http://www.w3.org/1999/xlink" x="0px" y="0px" width="768px"
	 height="52px" viewBox="0 0 768 52" enable-background="new 0 0 768 52" xml:space="preserve">
<g id="Layer_1">
</g>
<g id="Layer_2">
	<g>
		<g>
			<circle fill="none" stroke="#231F20" stroke-miterlimit="10" cx="25.802" cy="26.023" r="9.876"/>
			<path fill="none" stroke="#231F20" stroke-miterlimit="10" d="M15.993,24.881c0,0,5.82,0.143,9.81-1.011
				c5.086-1.469,6.992-4.821,6.992-4.821"/>
			<path fill="none" stroke="#231F20" stroke-miterlimit="10" d="M19.146,33.319c0,0,2.212-4.187,6.979-6.3
				c4.172-1.848,9.503,0,9.503,0"/>
			<path fill="none" stroke="#231F20" stroke-miterlimit="10" d="M22.296,16.789c0,0,3.254,4.084,5.091,8.235
				c2.368,5.35,2.91,9.792,2.91,9.792"/>
		</g>
		<circle fill="none" stroke="#231F20" stroke-miterlimit="10" cx="25.802" cy="26.023" r="15.802"/>
	</g>
	<g>
		<g>
			<path fill="#231F20" d="M68.446,18.439c1.166,0,2.218,0.489,2.958,1.279c0.915-0.177,1.792-0.515,2.569-0.978
				c-0.301,0.94-0.94,1.729-1.78,2.231c0.815-0.088,1.604-0.313,2.332-0.627c-0.552,0.802-1.242,1.517-2.031,2.093
				c0.012,0.175,0.012,0.351,0.012,0.526c0,5.352-4.072,11.519-11.518,11.519c-2.293,0-4.424-0.664-6.217-1.817
				c0.326,0.038,0.64,0.05,0.978,0.05c1.893,0,3.635-0.639,5.025-1.729c-1.78-0.038-3.271-1.203-3.785-2.807
				c0.251,0.038,0.501,0.063,0.765,0.063c0.363,0,0.727-0.051,1.064-0.139c-1.854-0.375-3.246-2.005-3.246-3.973
				c0-0.013,0-0.038,0-0.051c0.539,0.302,1.166,0.49,1.83,0.515c-1.09-0.727-1.805-1.968-1.805-3.372c0-0.752,0.2-1.44,0.551-2.043
				c1.992,2.457,4.988,4.062,8.348,4.236c-0.063-0.3-0.101-0.613-0.101-0.928C64.398,20.256,66.203,18.439,68.446,18.439
				 M73.973,18.74h0.005 M68.446,17.439c-2.718,0-4.942,2.16-5.044,4.854c-2.535-0.414-4.85-1.741-6.474-3.745
				c-0.191-0.235-0.477-0.37-0.777-0.37c-0.025,0-0.051,0.001-0.077,0.003c-0.327,0.025-0.622,0.209-0.787,0.493
				c-0.456,0.782-0.688,1.639-0.688,2.547c0,0.708,0.147,1.396,0.422,2.024c-0.278,0.185-0.447,0.497-0.447,0.833v0.051
				c0,1.393,0.576,2.68,1.519,3.607c-0.113,0.229-0.135,0.497-0.055,0.747c0.382,1.193,1.185,2.169,2.216,2.785
				c-0.791,0.294-1.634,0.446-2.505,0.446c-0.341,0-0.607-0.013-0.862-0.043c-0.039-0.004-0.078-0.007-0.116-0.007
				c-0.418,0-0.797,0.262-0.941,0.663c-0.157,0.438,0.009,0.927,0.4,1.178c2.009,1.293,4.346,1.977,6.758,1.977
				c4.707,0,7.656-2.225,9.301-4.091c2.044-2.319,3.217-5.391,3.217-8.427c0-0.015,0-0.03,0-0.045
				c0.703-0.576,1.321-1.25,1.842-2.007c0.253-0.367,0.232-0.857-0.051-1.202c-0.132-0.16-0.305-0.271-0.495-0.326
				c0.036-0.088,0.068-0.177,0.099-0.268c0.047-0.116,0.073-0.243,0.073-0.376c0-0.552-0.445-1-0.998-1h-0.002
				c-0.001,0-0.002,0-0.003,0c-0.011,0-0.021,0-0.032,0h0h0c-0.18,0.006-0.348,0.06-0.492,0.148
				c-0.539,0.319-1.135,0.57-1.748,0.735C70.796,17.865,69.639,17.439,68.446,17.439L68.446,17.439z"/>
		</g>
		<circle fill="none" stroke="#231F20" stroke-miterlimit="10" cx="63.99" cy="25.802" r="15.802"/>
	</g>
	<g>
		<g>
			<path fill="#231F20" d="M94.848,18.883c1.211,0.163,2.099,0.791,3.235,1.68c0.178,0.139,0.395,0.212,0.616,0.212
				c0.077,0,0.155-0.009,0.231-0.027c1.082-0.257,2.238-0.388,3.436-0.388c1.086,0,2.125,0.118,3.089,0.352
				c0.078,0.019,0.157,0.028,0.235,0.028c0.221,0,0.438-0.073,0.616-0.212c1.081-0.845,1.98-1.479,3.2-1.645
				c0.166,0.493,0.252,1.018,0.252,1.545c0,0.579-0.09,1.143-0.269,1.677c-0.111,0.332-0.041,0.698,0.186,0.965
				c0.914,1.075,1.377,2.447,1.377,4.077c0,0.953-0.064,2.352-0.621,3.485c-0.112,0.227-0.243,0.436-0.39,0.629
				c0.234-0.593,0.352-1.269,0.352-2.026c0-2.56-1.699-4.418-4.039-4.418c-0.69,0-1.337,0.096-1.962,0.188
				c-0.162,0.024-0.325,0.048-0.505,0.073c-0.518,0.08-1.078,0.118-1.711,0.118s-1.193-0.039-1.726-0.12l-0.454-0.066
				C99.36,24.917,98.7,24.818,98,24.818c-2.34,0-4.039,1.858-4.039,4.418c0,0.731,0.109,1.385,0.327,1.962
				c-0.134-0.177-0.254-0.368-0.358-0.573c-0.563-1.115-0.628-2.519-0.628-3.478c0-1.625,0.462-2.987,1.373-4.05
				c0.227-0.265,0.3-0.63,0.191-0.962c-0.177-0.542-0.271-1.131-0.271-1.707C94.596,19.901,94.682,19.376,94.848,18.883
				 M105.977,27.958c0.209,0,0.519,0.674,0.519,1.279c0,0.605-0.31,1.279-0.519,1.279s-0.519-0.674-0.519-1.279
				C105.458,28.631,105.767,27.958,105.977,27.958 M98.379,27.958c0.209,0,0.519,0.674,0.519,1.279c0,0.605-0.31,1.279-0.519,1.279
				c-0.21,0-0.52-0.674-0.52-1.279C97.859,28.631,98.169,27.958,98.379,27.958 M110.156,17.841c-1.853,0-3.052,0.795-4.464,1.899
				c-1.081-0.262-2.208-0.38-3.325-0.38c-1.234,0-2.469,0.13-3.667,0.415c-1.425-1.115-2.623-1.935-4.499-1.935
				c-0.404,0.807-0.605,1.697-0.605,2.588c0,0.677,0.107,1.365,0.32,2.018c-1.139,1.329-1.614,2.968-1.614,4.701
				c0,1.317,0.13,2.729,0.735,3.929c1.626,3.205,6.196,3.478,9.33,3.478c3.087,0,7.396-0.309,8.963-3.478
				c0.594-1.211,0.724-2.611,0.724-3.929c0-1.733-0.475-3.383-1.615-4.725c0.214-0.641,0.321-1.317,0.321-1.994
				C110.76,19.539,110.559,18.648,110.156,17.841L110.156,17.841z M102.178,26.198c0.629,0,1.247-0.035,1.863-0.13
				c0.785-0.107,1.531-0.25,2.316-0.25c1.934,0,3.039,1.602,3.039,3.418c0,3.633-3.325,4.191-6.222,4.191h-1.994
				c-2.896,0-6.219-0.558-6.219-4.191c0-1.816,1.104-3.418,3.039-3.418c0.783,0,1.542,0.142,2.314,0.25
				C100.931,26.163,101.549,26.198,102.178,26.198L102.178,26.198z M105.977,26.958c-1.068,0-1.519,1.412-1.519,2.279
				s0.451,2.279,1.519,2.279c1.069,0,1.519-1.413,1.519-2.279S107.045,26.958,105.977,26.958L105.977,26.958z M98.379,26.958
				c-1.068,0-1.52,1.412-1.52,2.279s0.452,2.279,1.52,2.279c1.068,0,1.519-1.413,1.519-2.279S99.447,26.958,98.379,26.958
				L98.379,26.958z"/>
		</g>
		<circle fill="none" stroke="#231F20" stroke-miterlimit="10" cx="102.178" cy="26.198" r="15.802"/>
	</g>
</g>
</svg>
